# xmcd
#
# Track frame offsets: 
#        150
#        24067
#        45715
#        65340
#        84055
#        111380
#        134512
#        153597
#        173600
#
# Disc length: 2711 seconds
#
# Revision: 2
# Processed by: cddbd v1.5.2PL0 Copyright (c) Steve Scherf et al.
# Submitted via: ExactAudioCopy v0.95b4
#
DISCID=670a9509
DTITLE=Massive Attack - Blue Lines
DYEAR=1991
DGENRE=Trip Hop
TTITLE0=Safe From Harm
TTITLE1=One Love
TTITLE2=Blue Lines
TTITLE3=Be Thankful For What You've Got
TTITLE4=Five Man Army
TTITLE5=Unfinished Sympathy
TTITLE6=Daydreaming
TTITLE7=Lately
TTITLE8=Hymn Of The Big Wheel
EXTD=YEAR: 1991
EXTT0=
EXTT1=
EXTT2=
EXTT3=
EXTT4=
EXTT5=
EXTT6=
EXTT7=
EXTT8=
PLAYORDER=
